<svg width="830" height="900" viewBox="0 0 830 900" fill="none" xmlns="http://www.w3.org/2000/svg">
<mask id="mask0" mask-type="alpha" maskUnits="userSpaceOnUse" x="0" y="0" width="830" height="900">
<path d="M829.961 0H0V900H829.961V0Z" fill="white"/>
</mask>
<g mask="url(#mask0)">
<path d="M1013.23 0H-186.77V900H1013.23V0Z" fill="#F2F2F2"/>
<path fill-rule="evenodd" clip-rule="evenodd" d="M342.73 70.5C380.837 70.5 411.73 101.361 411.73 139.431V750.616C411.73 788.685 380.837 819.546 342.73 819.546C317.324 819.546 294.324 834.864 273.729 865.5V139.431C273.729 101.361 304.622 70.5 342.73 70.5Z" fill="#75CBB3"/>
<path fill-rule="evenodd" clip-rule="evenodd" d="M342.73 -232.5C380.837 -232.5 411.73 -201.628 411.73 -163.546V447.843C411.73 485.925 380.837 516.797 342.73 516.797C317.324 516.797 294.324 539.781 273.729 585.75V-163.546C273.729 -201.628 304.622 -232.5 342.73 -232.5Z" fill="#F2F2F2"/>
<path fill-rule="evenodd" clip-rule="evenodd" d="M273.729 609.375H-1.52051V-38.05H110.873V-42H273.729V609.375ZM273.729 611.625V631.875H-1.52051V611.625H273.729ZM273.729 635.625V654H-1.52051V635.625H273.729ZM273.729 660V676.125H-1.52051V660H273.729ZM273.729 684.375V697.875H-1.52051V684.375H273.729ZM273.729 707.625V720.75H-1.52051V707.625H273.729ZM273.729 732.75V741.725C273.729 741.859 273.729 741.992 273.728 742.125H-1.51939C-1.52014 741.992 -1.52051 741.859 -1.52051 741.725V732.75H273.729ZM272.176 756.375C271.569 759.192 270.791 761.946 269.852 764.625H2.35679C1.41813 761.946 0.639485 759.192 0.032374 756.375H272.176ZM261.939 780.375C260.44 782.595 258.815 784.724 257.076 786.75H15.133C13.3933 784.724 11.7689 782.595 10.2701 780.375H261.939ZM233.02 804.75C224.439 808.605 214.928 810.75 204.917 810.75H67.2919C57.2811 810.75 47.7695 808.605 39.1888 804.75H233.02H233.02Z" fill="#7A4865"/>
<mask id="mask1" mask-type="alpha" maskUnits="userSpaceOnUse" x="-2" y="-43" width="276" height="616">
<path d="M-1.52051 -42.1941H273.729V213.944C273.729 252.005 242.921 282.86 204.917 282.86C166.913 282.86 136.104 313.715 136.104 351.776V434.974C136.104 511.096 74.4876 572.806 -1.52051 572.806V-42.1941Z" fill="white"/>
</mask>
<g mask="url(#mask1)">
<path d="M-1.52051 -42.1941H273.729V213.944C273.729 252.005 242.921 282.86 204.917 282.86C166.913 282.86 136.104 313.715 136.104 351.776V434.974C136.104 511.096 74.4876 572.806 -1.52051 572.806V-42.1941Z" fill="#F6CB51"/>
</g>
<path fill-rule="evenodd" clip-rule="evenodd" d="M687.729 333.75V729.842C687.729 767.924 656.837 798.796 618.729 798.796C593.324 798.796 570.324 821.78 549.729 867.749V274.959C554.663 308.226 583.34 333.75 617.979 333.75H687.729Z" fill="#3D2C42"/>
<mask id="mask2" mask-type="alpha" maskUnits="userSpaceOnUse" x="549" y="471" width="139" height="472">
<path d="M618.661 471.75C656.73 471.75 687.592 502.584 687.592 540.619V873.485C687.592 911.52 656.73 942.354 618.661 942.354C580.591 942.354 549.729 911.52 549.729 873.485V540.619C549.729 502.584 580.591 471.75 618.661 471.75Z" fill="white"/>
</mask>
<g mask="url(#mask2)">
<path d="M618.661 471.75C656.73 471.75 687.592 502.584 687.592 540.619V873.485C687.592 911.52 656.73 942.354 618.661 942.354C580.591 942.354 549.729 911.52 549.729 873.485V540.619C549.729 502.584 580.591 471.75 618.661 471.75Z" fill="#DC2249"/>
</g>
<mask id="mask3" mask-type="alpha" maskUnits="userSpaceOnUse" x="281" y="-33" width="263" height="263">
<path d="M412.284 229.029C484.663 229.029 543.338 170.371 543.338 98.0142C543.338 25.6571 484.663 -33 412.284 -33C339.905 -33 281.23 25.6571 281.23 98.0142C281.23 170.371 339.905 229.029 412.284 229.029Z" fill="white"/>
</mask>
<g mask="url(#mask3)">
<path d="M412.284 229.029C484.663 229.029 543.338 170.371 543.338 98.0142C543.338 25.6571 484.663 -33 412.284 -33C339.905 -33 281.23 25.6571 281.23 98.0142C281.23 170.371 339.905 229.029 412.284 229.029Z" fill="#75CBB3"/>
<path fill-rule="evenodd" clip-rule="evenodd" d="M688.187 -42.194V740.723C688.187 778.817 657.306 809.699 619.211 809.699H481.259C443.165 809.699 412.283 778.817 412.283 740.723V-42.194H688.187Z" fill="#F2F2F2"/>
<path d="M543.338 96.8648H412.283V319.819H543.338V96.8648Z" fill="#7A4865"/>
</g>
<path fill-rule="evenodd" clip-rule="evenodd" d="M859.107 586.13C857.245 586.13 855.735 584.628 855.735 582.775C855.735 580.922 857.245 579.42 859.107 579.42C860.969 579.42 862.479 580.922 862.479 582.775C862.479 584.628 860.969 586.13 859.107 586.13ZM859.107 562.646C857.245 562.646 855.735 561.144 855.735 559.291C855.735 557.438 857.245 555.936 859.107 555.936C860.969 555.936 862.479 557.438 862.479 559.291C862.479 561.144 860.969 562.646 859.107 562.646ZM859.107 539.162C857.245 539.162 855.735 537.66 855.735 535.807C855.735 533.954 857.245 532.452 859.107 532.452C860.969 532.452 862.479 533.954 862.479 535.807C862.479 537.66 860.969 539.162 859.107 539.162ZM859.107 515.678C857.245 515.678 855.735 514.176 855.735 512.323C855.735 510.47 857.245 508.968 859.107 508.968C860.969 508.968 862.479 510.47 862.479 512.323C862.479 514.176 860.969 515.678 859.107 515.678ZM859.107 492.194C857.245 492.194 855.735 490.692 855.735 488.839C855.735 486.986 857.245 485.484 859.107 485.484C860.969 485.484 862.479 486.986 862.479 488.839C862.479 490.692 860.969 492.194 859.107 492.194ZM859.107 468.71C857.245 468.71 855.735 467.208 855.735 465.355C855.735 463.502 857.245 462 859.107 462C860.969 462 862.479 463.502 862.479 465.355C862.479 467.208 860.969 468.71 859.107 468.71ZM836.948 586.13C835.086 586.13 833.576 584.628 833.576 582.775C833.576 580.922 835.086 579.42 836.948 579.42C838.811 579.42 840.32 580.922 840.32 582.775C840.32 584.628 838.811 586.13 836.948 586.13ZM836.948 562.646C835.086 562.646 833.576 561.144 833.576 559.291C833.576 557.438 835.086 555.936 836.948 555.936C838.811 555.936 840.32 557.438 840.32 559.291C840.32 561.144 838.811 562.646 836.948 562.646ZM836.948 539.162C835.086 539.162 833.576 537.66 833.576 535.807C833.576 533.954 835.086 532.452 836.948 532.452C838.811 532.452 840.32 533.954 840.32 535.807C840.32 537.66 838.811 539.162 836.948 539.162ZM836.948 515.678C835.086 515.678 833.576 514.176 833.576 512.323C833.576 510.47 835.086 508.968 836.948 508.968C838.811 508.968 840.32 510.47 840.32 512.323C840.32 514.176 838.811 515.678 836.948 515.678ZM836.948 492.194C835.086 492.194 833.576 490.692 833.576 488.839C833.576 486.986 835.086 485.484 836.948 485.484C838.811 485.484 840.32 486.986 840.32 488.839C840.32 490.692 838.811 492.194 836.948 492.194ZM836.948 468.71C835.086 468.71 833.576 467.208 833.576 465.355C833.576 463.502 835.086 462 836.948 462C838.811 462 840.32 463.502 840.32 465.355C840.32 467.208 838.811 468.71 836.948 468.71ZM814.79 586.13C812.928 586.13 811.418 584.628 811.418 582.775C811.418 580.922 812.928 579.42 814.79 579.42C816.652 579.42 818.162 580.922 818.162 582.775C818.162 584.628 816.652 586.13 814.79 586.13ZM814.79 562.646C812.928 562.646 811.418 561.144 811.418 559.291C811.418 557.438 812.928 555.936 814.79 555.936C816.652 555.936 818.162 557.438 818.162 559.291C818.162 561.144 816.652 562.646 814.79 562.646ZM814.79 539.162C812.928 539.162 811.418 537.66 811.418 535.807C811.418 533.954 812.928 532.452 814.79 532.452C816.652 532.452 818.162 533.954 818.162 535.807C818.162 537.66 816.652 539.162 814.79 539.162ZM814.79 515.678C812.928 515.678 811.418 514.176 811.418 512.323C811.418 510.47 812.928 508.968 814.79 508.968C816.652 508.968 818.162 510.47 818.162 512.323C818.162 514.176 816.652 515.678 814.79 515.678ZM814.79 492.194C812.928 492.194 811.418 490.692 811.418 488.839C811.418 486.986 812.928 485.484 814.79 485.484C816.652 485.484 818.162 486.986 818.162 488.839C818.162 490.692 816.652 492.194 814.79 492.194ZM814.79 468.71C812.928 468.71 811.418 467.208 811.418 465.355C811.418 463.502 812.928 462 814.79 462C816.652 462 818.162 463.502 818.162 465.355C818.162 467.208 816.652 468.71 814.79 468.71ZM791.668 586.13C789.806 586.13 788.296 584.628 788.296 582.775C788.296 580.922 789.806 579.42 791.668 579.42C793.53 579.42 795.04 580.922 795.04 582.775C795.04 584.628 793.53 586.13 791.668 586.13ZM791.668 562.646C789.806 562.646 788.296 561.144 788.296 559.291C788.296 557.438 789.806 555.936 791.668 555.936C793.53 555.936 795.04 557.438 795.04 559.291C795.04 561.144 793.53 562.646 791.668 562.646ZM791.668 539.162C789.806 539.162 788.296 537.66 788.296 535.807C788.296 533.954 789.806 532.452 791.668 532.452C793.53 532.452 795.04 533.954 795.04 535.807C795.04 537.66 793.53 539.162 791.668 539.162ZM791.668 515.678C789.806 515.678 788.296 514.176 788.296 512.323C788.296 510.47 789.806 508.968 791.668 508.968C793.53 508.968 795.04 510.47 795.04 512.323C795.04 514.176 793.53 515.678 791.668 515.678ZM791.668 492.194C789.806 492.194 788.296 490.692 788.296 488.839C788.296 486.986 789.806 485.484 791.668 485.484C793.53 485.484 795.04 486.986 795.04 488.839C795.04 490.692 793.53 492.194 791.668 492.194ZM791.668 468.71C789.806 468.71 788.296 467.208 788.296 465.355C788.296 463.502 789.806 462 791.668 462C793.53 462 795.04 463.502 795.04 465.355C795.04 467.208 793.53 468.71 791.668 468.71ZM769.51 586.13C767.647 586.13 766.138 584.628 766.138 582.775C766.138 580.922 767.647 579.42 769.51 579.42C771.372 579.42 772.882 580.922 772.882 582.775C772.882 584.628 771.372 586.13 769.51 586.13ZM769.51 562.646C767.647 562.646 766.138 561.144 766.138 559.291C766.138 557.438 767.647 555.936 769.51 555.936C771.372 555.936 772.882 557.438 772.882 559.291C772.882 561.144 771.372 562.646 769.51 562.646ZM769.51 539.162C767.647 539.162 766.138 537.66 766.138 535.807C766.138 533.954 767.647 532.452 769.51 532.452C771.372 532.452 772.882 533.954 772.882 535.807C772.882 537.66 771.372 539.162 769.51 539.162ZM769.51 515.678C767.647 515.678 766.138 514.176 766.138 512.323C766.138 510.47 767.647 508.968 769.51 508.968C771.372 508.968 772.882 510.47 772.882 512.323C772.882 514.176 771.372 515.678 769.51 515.678ZM769.51 492.194C767.647 492.194 766.138 490.692 766.138 488.839C766.138 486.986 767.647 485.484 769.51 485.484C771.372 485.484 772.882 486.986 772.882 488.839C772.882 490.692 771.372 492.194 769.51 492.194ZM769.51 468.71C767.647 468.71 766.138 467.208 766.138 465.355C766.138 463.502 767.647 462 769.51 462C771.372 462 772.882 463.502 772.882 465.355C772.882 467.208 771.372 468.71 769.51 468.71ZM747.351 586.13C745.489 586.13 743.979 584.628 743.979 582.775C743.979 580.922 745.489 579.42 747.351 579.42C749.214 579.42 750.723 580.922 750.723 582.775C750.723 584.628 749.214 586.13 747.351 586.13ZM747.351 562.646C745.489 562.646 743.979 561.144 743.979 559.291C743.979 557.438 745.489 555.936 747.351 555.936C749.214 555.936 750.723 557.438 750.723 559.291C750.723 561.144 749.214 562.646 747.351 562.646ZM747.351 539.162C745.489 539.162 743.979 537.66 743.979 535.807C743.979 533.954 745.489 532.452 747.351 532.452C749.214 532.452 750.723 533.954 750.723 535.807C750.723 537.66 749.214 539.162 747.351 539.162ZM747.351 515.678C745.489 515.678 743.979 514.176 743.979 512.323C743.979 510.47 745.489 508.968 747.351 508.968C749.214 508.968 750.723 510.47 750.723 512.323C750.723 514.176 749.214 515.678 747.351 515.678ZM747.351 492.194C745.489 492.194 743.979 490.692 743.979 488.839C743.979 486.986 745.489 485.484 747.351 485.484C749.214 485.484 750.723 486.986 750.723 488.839C750.723 490.692 749.214 492.194 747.351 492.194ZM747.351 468.71C745.489 468.71 743.979 467.208 743.979 465.355C743.979 463.502 745.489 462 747.351 462C749.214 462 750.723 463.502 750.723 465.355C750.723 467.208 749.214 468.71 747.351 468.71ZM859.107 727.5C857.245 727.5 855.735 725.998 855.735 724.145C855.735 722.292 857.245 720.79 859.107 720.79C860.969 720.79 862.479 722.292 862.479 724.145C862.479 725.998 860.969 727.5 859.107 727.5ZM859.107 704.016C857.245 704.016 855.735 702.514 855.735 700.661C855.735 698.808 857.245 697.306 859.107 697.306C860.969 697.306 862.479 698.808 862.479 700.661C862.479 702.514 860.969 704.016 859.107 704.016ZM859.107 680.532C857.245 680.532 855.735 679.03 855.735 677.177C855.735 675.324 857.245 673.822 859.107 673.822C860.969 673.822 862.479 675.324 862.479 677.177C862.479 679.03 860.969 680.532 859.107 680.532ZM859.107 657.048C857.245 657.048 855.735 655.546 855.735 653.693C855.735 651.84 857.245 650.338 859.107 650.338C860.969 650.338 862.479 651.84 862.479 653.693C862.479 655.546 860.969 657.048 859.107 657.048ZM859.107 633.564C857.245 633.564 855.735 632.062 855.735 630.209C855.735 628.356 857.245 626.854 859.107 626.854C860.969 626.854 862.479 628.356 862.479 630.209C862.479 632.062 860.969 633.564 859.107 633.564ZM859.107 610.08C857.245 610.08 855.735 608.578 855.735 606.725C855.735 604.872 857.245 603.37 859.107 603.37C860.969 603.37 862.479 604.872 862.479 606.725C862.479 608.578 860.969 610.08 859.107 610.08ZM836.948 727.5C835.086 727.5 833.576 725.998 833.576 724.145C833.576 722.292 835.086 720.79 836.948 720.79C838.811 720.79 840.32 722.292 840.32 724.145C840.32 725.998 838.811 727.5 836.948 727.5ZM836.948 704.016C835.086 704.016 833.576 702.514 833.576 700.661C833.576 698.808 835.086 697.306 836.948 697.306C838.811 697.306 840.32 698.808 840.32 700.661C840.32 702.514 838.811 704.016 836.948 704.016ZM836.948 680.532C835.086 680.532 833.576 679.03 833.576 677.177C833.576 675.324 835.086 673.822 836.948 673.822C838.811 673.822 840.32 675.324 840.32 677.177C840.32 679.03 838.811 680.532 836.948 680.532ZM836.948 657.048C835.086 657.048 833.576 655.546 833.576 653.693C833.576 651.84 835.086 650.338 836.948 650.338C838.811 650.338 840.32 651.84 840.32 653.693C840.32 655.546 838.811 657.048 836.948 657.048ZM836.948 633.564C835.086 633.564 833.576 632.062 833.576 630.209C833.576 628.356 835.086 626.854 836.948 626.854C838.811 626.854 840.32 628.356 840.32 630.209C840.32 632.062 838.811 633.564 836.948 633.564ZM836.948 610.08C835.086 610.08 833.576 608.578 833.576 606.725C833.576 604.872 835.086 603.37 836.948 603.37C838.811 603.37 840.32 604.872 840.32 606.725C840.32 608.578 838.811 610.08 836.948 610.08ZM814.79 727.5C812.928 727.5 811.418 725.998 811.418 724.145C811.418 722.292 812.928 720.79 814.79 720.79C816.652 720.79 818.162 722.292 818.162 724.145C818.162 725.998 816.652 727.5 814.79 727.5ZM814.79 704.016C812.928 704.016 811.418 702.514 811.418 700.661C811.418 698.808 812.928 697.306 814.79 697.306C816.652 697.306 818.162 698.808 818.162 700.661C818.162 702.514 816.652 704.016 814.79 704.016ZM814.79 680.532C812.928 680.532 811.418 679.03 811.418 677.177C811.418 675.324 812.928 673.822 814.79 673.822C816.652 673.822 818.162 675.324 818.162 677.177C818.162 679.03 816.652 680.532 814.79 680.532ZM814.79 657.048C812.928 657.048 811.418 655.546 811.418 653.693C811.418 651.84 812.928 650.338 814.79 650.338C816.652 650.338 818.162 651.84 818.162 653.693C818.162 655.546 816.652 657.048 814.79 657.048ZM814.79 633.564C812.928 633.564 811.418 632.062 811.418 630.209C811.418 628.356 812.928 626.854 814.79 626.854C816.652 626.854 818.162 628.356 818.162 630.209C818.162 632.062 816.652 633.564 814.79 633.564ZM814.79 610.08C812.928 610.08 811.418 608.578 811.418 606.725C811.418 604.872 812.928 603.37 814.79 603.37C816.652 603.37 818.162 604.872 818.162 606.725C818.162 608.578 816.652 610.08 814.79 610.08ZM791.668 727.5C789.806 727.5 788.296 725.998 788.296 724.145C788.296 722.292 789.806 720.79 791.668 720.79C793.53 720.79 795.04 722.292 795.04 724.145C795.04 725.998 793.53 727.5 791.668 727.5ZM791.668 704.016C789.806 704.016 788.296 702.514 788.296 700.661C788.296 698.808 789.806 697.306 791.668 697.306C793.53 697.306 795.04 698.808 795.04 700.661C795.04 702.514 793.53 704.016 791.668 704.016ZM791.668 680.532C789.806 680.532 788.296 679.03 788.296 677.177C788.296 675.324 789.806 673.822 791.668 673.822C793.53 673.822 795.04 675.324 795.04 677.177C795.04 679.03 793.53 680.532 791.668 680.532ZM791.668 657.048C789.806 657.048 788.296 655.546 788.296 653.693C788.296 651.84 789.806 650.338 791.668 650.338C793.53 650.338 795.04 651.84 795.04 653.693C795.04 655.546 793.53 657.048 791.668 657.048ZM791.668 633.564C789.806 633.564 788.296 632.062 788.296 630.209C788.296 628.356 789.806 626.854 791.668 626.854C793.53 626.854 795.04 628.356 795.04 630.209C795.04 632.062 793.53 633.564 791.668 633.564ZM791.668 610.08C789.806 610.08 788.296 608.578 788.296 606.725C788.296 604.872 789.806 603.37 791.668 603.37C793.53 603.37 795.04 604.872 795.04 606.725C795.04 608.578 793.53 610.08 791.668 610.08ZM769.51 727.5C767.647 727.5 766.138 725.998 766.138 724.145C766.138 722.292 767.647 720.79 769.51 720.79C771.372 720.79 772.882 722.292 772.882 724.145C772.882 725.998 771.372 727.5 769.51 727.5ZM769.51 704.016C767.647 704.016 766.138 702.514 766.138 700.661C766.138 698.808 767.647 697.306 769.51 697.306C771.372 697.306 772.882 698.808 772.882 700.661C772.882 702.514 771.372 704.016 769.51 704.016ZM769.51 680.532C767.647 680.532 766.138 679.03 766.138 677.177C766.138 675.324 767.647 673.822 769.51 673.822C771.372 673.822 772.882 675.324 772.882 677.177C772.882 679.03 771.372 680.532 769.51 680.532ZM769.51 657.048C767.647 657.048 766.138 655.546 766.138 653.693C766.138 651.84 767.647 650.338 769.51 650.338C771.372 650.338 772.882 651.84 772.882 653.693C772.882 655.546 771.372 657.048 769.51 657.048ZM769.51 633.564C767.647 633.564 766.138 632.062 766.138 630.209C766.138 628.356 767.647 626.854 769.51 626.854C771.372 626.854 772.882 628.356 772.882 630.209C772.882 632.062 771.372 633.564 769.51 633.564ZM769.51 610.08C767.647 610.08 766.138 608.578 766.138 606.725C766.138 604.872 767.647 603.37 769.51 603.37C771.372 603.37 772.882 604.872 772.882 606.725C772.882 608.578 771.372 610.08 769.51 610.08ZM747.351 727.5C745.489 727.5 743.979 725.998 743.979 724.145C743.979 722.292 745.489 720.79 747.351 720.79C749.214 720.79 750.723 722.292 750.723 724.145C750.723 725.998 749.214 727.5 747.351 727.5ZM747.351 704.016C745.489 704.016 743.979 702.514 743.979 700.661C743.979 698.808 745.489 697.306 747.351 697.306C749.214 697.306 750.723 698.808 750.723 700.661C750.723 702.514 749.214 704.016 747.351 704.016ZM747.351 680.532C745.489 680.532 743.979 679.03 743.979 677.177C743.979 675.324 745.489 673.822 747.351 673.822C749.214 673.822 750.723 675.324 750.723 677.177C750.723 679.03 749.214 680.532 747.351 680.532ZM747.351 657.048C745.489 657.048 743.979 655.546 743.979 653.693C743.979 651.84 745.489 650.338 747.351 650.338C749.214 650.338 750.723 651.84 750.723 653.693C750.723 655.546 749.214 657.048 747.351 657.048ZM747.351 633.564C745.489 633.564 743.979 632.062 743.979 630.209C743.979 628.356 745.489 626.854 747.351 626.854C749.214 626.854 750.723 628.356 750.723 630.209C750.723 632.062 749.214 633.564 747.351 633.564ZM747.351 610.08C745.489 610.08 743.979 608.578 743.979 606.725C743.979 604.872 745.489 603.37 747.351 603.37C749.214 603.37 750.723 604.872 750.723 606.725C750.723 608.578 749.214 610.08 747.351 610.08Z" fill="#DC2249"/>
<path d="M343.269 626.476C435.936 626.476 511.058 551.377 511.058 458.738C511.058 366.099 435.936 291 343.269 291C250.601 291 175.479 366.099 175.479 458.738C175.479 551.377 250.601 626.476 343.269 626.476Z" fill="#F2F2F2"/>
<path d="M391.537 472.525C432.158 472.525 465.089 439.605 465.089 398.996C465.089 358.387 432.158 325.467 391.537 325.467C350.915 325.467 317.985 358.387 317.985 398.996C317.985 439.605 350.915 472.525 391.537 472.525Z" fill="#75CBB3"/>
<path d="M136.104 219.75C165.307 219.75 188.98 196.077 188.98 166.875C188.98 137.673 165.307 114 136.104 114C106.902 114 83.2294 137.673 83.2294 166.875C83.2294 196.077 106.902 219.75 136.104 219.75Z" fill="#7A4865"/>
<path d="M631.854 299.25C661.056 299.25 684.729 275.577 684.729 246.375C684.729 217.173 661.056 193.5 631.854 193.5C602.652 193.5 578.979 217.173 578.979 246.375C578.979 275.577 602.652 299.25 631.854 299.25Z" fill="#7A4865"/>
<path d="M38.2295 114C48.999 114 57.7294 105.27 57.7294 94.5C57.7294 83.7305 48.999 75 38.2295 75C27.46 75 18.7296 83.7305 18.7296 94.5C18.7296 105.27 27.46 114 38.2295 114Z" fill="#7A4865"/>
<path d="M58.1044 300.75C72.3947 300.75 83.9793 289.165 83.9793 274.875C83.9793 260.585 72.3947 249 58.1044 249C43.8141 249 32.2296 260.585 32.2296 274.875C32.2296 289.165 43.8141 300.75 58.1044 300.75Z" fill="#F2F2F2"/>
</g>
</svg>
